<svg xmlns:xlink="http://www.w3.org/1999/xlink" xmlns="http://www.w3.org/2000/svg" viewBox="0 0 28 35" height="24" width="24" preserveAspectRatio="xMidYMid meet" class="" version="1.1"><path d="M14,1.10204082 C18.5689011,1.10204082 22.2727273,4.80586698 22.2727273,9.37476809 L22.272,12.1790408 L22.3564837,12.181606 C24.9401306,12.294858 27,14.4253101 27,17.0368705 L27,29.4665309 C27,32.1506346 24.824104,34.3265306 22.1400003,34.3265306 L5.85999974,34.3265306 C3.175896,34.3265306 1,32.1506346 1,29.4665309 L1,17.0368705 C1,14.3970988 3.10461313,12.2488858 5.72742704,12.178644 L5.72727273,9.37476809 C5.72727273,4.80586698 9.43109889,1.10204082 14,1.10204082 Z M14,19.5600907 C12.0418995,19.5600907 10.4545455,21.2128808 10.4545455,23.2517007 C10.4545455,25.2905206 12.0418995,26.9433107 14,26.9433107 C15.9581005,26.9433107 17.5454545,25.2905206 17.5454545,23.2517007 C17.5454545,21.2128808 15.9581005,19.5600907 14,19.5600907 Z M14,4.79365079 C11.4617216,4.79365079 9.39069048,6.79417418 9.27759175,9.30453585 L9.27272727,9.52092352 L9.272,12.1760408 L18.727,12.1760408 L18.7272727,9.52092352 C18.7272727,6.91012289 16.6108006,4.79365079 14,4.79365079 Z" fill="#8696A0"></path></svg>